<?xml version="1.0" standalone="no"?>
<!DOCTYPE svg PUBLIC "-//W3C//DTD SVG 20010904//EN"
 "http://www.w3.org/TR/2001/REC-SVG-20010904/DTD/svg10.dtd">
<svg version="1.0" xmlns="http://www.w3.org/2000/svg"
 width="512.000000pt" height="512.000000pt" viewBox="0 0 512.000000 512.000000"
 preserveAspectRatio="xMidYMid meet">
<metadata>
Created by potrace 1.13, written by Peter Selinger 2001-2015
</metadata>
<g transform="translate(0.000000,512.000000) scale(0.100000,-0.100000)"
fill="#000000" stroke="none">
<path d="M0 2560 l0 -2560 2560 0 2560 0 0 2560 0 2560 -2560 0 -2560 0 0
-2560z m3169 2091 c9 -16 -2 -34 -67 -113 -102 -123 -175 -218 -167 -218 3 0
27 15 53 33 62 43 168 97 269 137 68 27 86 30 98 20 8 -7 15 -19 15 -27 0 -9
-62 -75 -138 -149 -144 -138 -261 -266 -383 -420 -70 -87 -199 -267 -199 -277
0 -2 23 -7 50 -11 28 -4 50 -12 51 -19 0 -7 2 -50 2 -97 2 -60 7 -96 21 -123
27 -54 113 -141 171 -172 320 -171 493 -337 604 -577 61 -131 85 -248 85 -408
0 -197 -45 -352 -146 -507 -118 -181 -281 -312 -479 -384 -165 -60 -251 -73
-489 -74 -225 0 -284 7 -432 51 -297 88 -560 336 -652 614 -47 140 -58 326
-31 495 16 104 33 154 81 245 103 195 245 327 594 552 157 102 180 134 180
260 0 61 -37 191 -65 232 -8 11 -15 31 -15 44 0 24 35 61 57 62 13 0 106 -53
135 -77 18 -16 17 -18 38 77 28 123 96 313 160 447 72 147 96 176 124 147 20
-19 20 -28 0 -93 -8 -29 -14 -55 -12 -57 2 -2 24 22 48 53 93 115 369 353 411
353 10 0 23 -9 28 -19z"/>
</g>
</svg>
